<?xml version="1.0" standalone="no"?>
<!DOCTYPE svg PUBLIC "-//W3C//DTD SVG 20010904//EN"
 "http://www.w3.org/TR/2001/REC-SVG-20010904/DTD/svg10.dtd">
<svg version="1.0" xmlns="http://www.w3.org/2000/svg"
 width="1280.000000pt" height="865.000000pt" viewBox="0 0 1280.000000 865.000000"
 preserveAspectRatio="xMidYMid meet">
<metadata>
Created by potrace 1.15, written by Peter Selinger 2001-2017
</metadata>
<defs>
    <radialGradient id="rgrad" cx="50%" cy="50%" r="75%" >
        <stop offset="0%" style="stop-color:rgb(250,198,149);stop-opacity:1" />
        <stop offset="72%" style="stop-color:rgb(245,171,102);stop-opacity:1" />
        <stop offset="100%" style="stop-color:rgb(234,183,136);stop-opacity:1" />
    </radialGradient>
</defs>
<g transform="translate(0.000000,865.000000) scale(0.100000,-0.100000)"
   fill="url(#rgrad)" stroke="none">
<path d="M2615 8630 c-137 -17 -272 -32 -685 -76 -175 -18 -288 -42 -480 -100
-371 -113 -676 -230 -898 -345 -274 -141 -374 -221 -444 -354 -99 -189 -99
-179 12 -1625 82 -1061 107 -1685 96 -2435 -8 -605 -21 -829 -106 -1830 -64
-739 -68 -789 -92 -992 -26 -223 -20 -291 34 -400 62 -127 241 -260 404 -300
91 -22 309 -22 419 1 107 22 163 51 275 147 52 44 118 93 145 107 46 25 59 27
155 26 91 -1 129 -7 284 -48 99 -26 222 -53 275 -61 139 -20 378 -35 572 -35
196 0 174 -13 209 128 24 96 150 681 150 695 0 6 3 7 7 4 3 -4 9 -91 13 -194
l7 -188 45 -110 c25 -60 58 -148 73 -195 15 -47 31 -88 35 -93 3 -4 33 2 66
13 249 86 564 121 1094 121 334 0 514 -8 727 -32 102 -12 102 -12 134 -51 36
-46 98 -77 149 -78 19 0 76 11 125 25 217 61 444 84 596 61 192 -29 379 -16
512 34 32 12 60 27 62 33 2 7 25 78 51 159 l47 147 29 -17 c73 -42 104 -167
78 -307 -15 -79 -13 -81 95 -154 96 -64 197 -96 300 -95 68 1 103 8 235 51
219 72 461 106 770 107 227 0 349 -16 508 -70 57 -19 108 -32 113 -29 4 3 14
25 20 48 14 52 7 146 -26 372 -26 180 -35 457 -15 470 6 4 10 -6 10 -24 0 -51
21 -131 52 -200 85 -187 108 -291 108 -488 0 -139 -7 -131 91 -113 30 5 117
14 194 20 227 17 276 9 830 -134 808 -207 850 -214 1245 -222 331 -7 503 4
577 36 70 30 137 102 158 171 30 96 30 339 1 714 -14 182 -30 488 -36 680 -6
193 -15 484 -20 648 -13 390 -13 1047 0 1218 34 446 97 723 300 1323 103 302
129 362 245 566 107 188 135 258 179 446 90 383 98 628 26 781 -63 136 -223
256 -434 327 -132 44 -224 34 -448 -50 -66 -24 -123 -43 -125 -40 -7 7 80 68
197 138 195 117 241 161 309 296 45 90 49 136 18 198 -42 82 -87 118 -372 291
-301 183 -1132 651 -1366 769 -186 93 -328 124 -403 89 -45 -21 -76 -67 -76
-111 0 -27 22 -103 44 -156 16 -36 -89 -35 -297 3 -105 19 -109 20 -140 2 -18
-11 -42 -40 -57 -68 -23 -46 -25 -61 -31 -245 -3 -116 -10 -207 -18 -224 -17
-43 -22 -27 -11 40 6 32 10 91 10 131 0 64 -4 80 -38 145 -36 68 -52 118 -67
211 -3 20 -9 37 -13 37 -4 0 -41 5 -82 11 -41 5 -138 10 -216 10 -131 0 -158
-4 -390 -52 -301 -62 -460 -73 -654 -44 l-115 17 -32 -37 c-37 -43 -60 -105
-69 -189 -5 -40 -10 -53 -16 -43 -17 32 -48 174 -54 254 l-7 82 45 20 c47 20
88 62 88 90 0 58 -90 125 -180 135 -56 7 -88 4 -505 -39 -707 -72 -784 -74
-1030 -26 -223 44 -300 41 -408 -12 -74 -36 -158 -102 -178 -138 -26 -50 19
-83 136 -101 41 -6 75 -15 75 -19 0 -15 -100 -156 -133 -188 l-36 -34 -5 24
c-3 13 -11 62 -17 109 -6 46 -13 88 -15 92 -3 4 -69 8 -147 8 -234 0 -465 33
-791 112 l-170 41 -27 -32 c-39 -48 -79 -136 -86 -190 -4 -33 0 -65 12 -101
21 -65 17 -134 -19 -285 -16 -68 -26 -140 -26 -190 -1 -79 -1 -80 -16 -46 -8
19 -19 64 -25 101 -11 65 -11 69 25 156 47 116 46 141 -9 234 -62 104 -58 165
21 323 21 42 36 79 33 81 -11 11 -529 70 -849 96 -109 9 -583 40 -618 40 -10
0 -11 -28 -6 -127 6 -118 5 -126 -10 -107 -8 12 -35 70 -60 130 -52 129 -31
121 -251 94z"/>
</g>
</svg>
