<?xml version="1.0" encoding="UTF-8" standalone="no"?>
<svg
   xmlns:dc="http://purl.org/dc/elements/1.1/"
   xmlns:cc="http://creativecommons.org/ns#"
   xmlns:rdf="http://www.w3.org/1999/02/22-rdf-syntax-ns#"
   xmlns:svg="http://www.w3.org/2000/svg"
   xmlns="http://www.w3.org/2000/svg"
   xmlns:sodipodi="http://sodipodi.sourceforge.net/DTD/sodipodi-0.dtd"
   xmlns:inkscape="http://www.inkscape.org/namespaces/inkscape"
   version="1.1"
   id="Capa_1"
   x="0px"
   y="0px"
   viewBox="0 0 58 58"
   style="enable-background:new 0 0 58 58;"
   xml:space="preserve"
   sodipodi:docname="log_template.svg"
   inkscape:version="1.0.1 (3bc2e813f5, 2020-09-07)"><metadata
   id="metadata134"><rdf:RDF><cc:Work
       rdf:about=""><dc:format>image/svg+xml</dc:format><dc:type
         rdf:resource="http://purl.org/dc/dcmitype/StillImage" /><dc:title></dc:title></cc:Work></rdf:RDF></metadata><defs
   id="defs132" /><sodipodi:namedview
   pagecolor="#ffffff"
   bordercolor="#666666"
   borderopacity="1"
   objecttolerance="10"
   gridtolerance="10"
   guidetolerance="10"
   inkscape:pageopacity="0"
   inkscape:pageshadow="2"
   inkscape:window-width="1920"
   inkscape:window-height="1027"
   id="namedview130"
   showgrid="false"
   inkscape:zoom="15.189655"
   inkscape:cx="29"
   inkscape:cy="29"
   inkscape:window-x="1072"
   inkscape:window-y="646"
   inkscape:window-maximized="1"
   inkscape:current-layer="Capa_1" />
<path
   style="fill:#241c1c"
   d="M36.028,0c-11.046,0-17,3.515-17,6v0.5v10.349l-4.335-4.335l-0.118-0.118  c-0.586-0.586-3.943-1-6.547,1.604c-2.604,2.603-3.467,7.238-2.881,7.824l0.118,0.118l13.763,13.763V52.5c0,3.038,5.954,5.5,17,5.5  s17-2.462,17-5.5v-46V6C53.028,3.515,47.074,0,36.028,0z"
   id="path73" />
<path
   style="fill:#28170b"
   d="M36.028,0C25.89,0,20.056,2.959,19.163,5.368C20.056,8.546,25.89,11,36.028,11  c10.138,0,15.972-2.454,16.865-5.632C52.001,2.959,46.166,0,36.028,0z"
   id="path75" />
<path
   style="fill:#28170b"
   d="M15.735,13.556l-1.042-1.042l-0.118-0.118c-0.586-0.586-3.943-1-6.547,1.604  c-2.604,2.603-3.467,7.238-2.881,7.824l0.118,0.118l0.952,0.952C12.551,20.983,14.913,16.946,15.735,13.556z"
   id="path77" />
<path
   style="fill:#2b1100"
   d="M46.028,50c-0.552,0-1,0.448-1,1v6.304c0.716-0.129,1.377-0.276,2-0.435V51  C47.028,50.448,46.58,50,46.028,50z"
   id="path79" />
<path
   style="fill:#2b1100"
   d="M40.028,47c-0.552,0-1,0.448-1,1v9.928c0.691-0.031,1.358-0.072,2-0.124V48  C41.028,47.448,40.58,47,40.028,47z"
   id="path81" />
<path
   style="fill:#2b1100"
   d="M36.028,54c-0.552,0-1,0.448-1,1v2.986c0.333,0.005,0.657,0.014,1,0.014c0.343,0,0.666-0.009,1-0.014  V55C37.028,54.448,36.58,54,36.028,54z"
   id="path83" />
<path
   style="fill:#2b1100"
   d="M31.028,49c-0.552,0-1,0.448-1,1v7.716c0.642,0.065,1.304,0.122,2,0.165V50  C32.028,49.448,31.58,49,31.028,49z"
   id="path85" />
<path
   style="fill:#2b1100"
   d="M24.028,42c-0.552,0-1,0.448-1,1v13.251c0.601,0.225,1.268,0.431,2,0.618V43  C25.028,42.448,24.58,42,24.028,42z"
   id="path87" />
<path
   style="fill:#2b1100"
   d="M23.006,8.924l0.022,10.078c0.001,0.552,0.449,0.998,1,0.998c0,0,0.001,0,0.001,0  c0.553-0.001,1-0.45,0.999-1.002l-0.02-9.339C24.276,9.436,23.606,9.192,23.006,8.924z"
   id="path89" />
<path
   style="fill:#2b1100"
   d="M27.991,10.364l0.037,15.638c0.001,0.551,0.449,0.998,1,0.998c0,0,0.001,0,0.002,0  c0.552-0.001,0.999-0.45,0.998-1.002l-0.036-15.34C29.295,10.573,28.624,10.477,27.991,10.364z"
   id="path91" />
<path
   style="fill:#2b1100"
   d="M37.028,10.985V16c0,0.552,0.448,1,1,1s1-0.448,1-1v-5.083  C38.383,10.951,37.715,10.973,37.028,10.985z"
   id="path93" />
<path
   style="fill:#2b1100"
   d="M44.028,10.37V27c0,0.552,0.448,1,1,1s1-0.448,1-1V9.94C45.4,10.099,44.737,10.244,44.028,10.37z"
   id="path95" />
<path
   style="fill:#2b1100"
   d="M48.028,9.336V19c0,0.552,0.448,1,1,1s1-0.448,1-1V8.435C49.443,8.76,48.78,9.063,48.028,9.336z"
   id="path97" />
<g
   id="g99">
</g>
<g
   id="g101">
</g>
<g
   id="g103">
</g>
<g
   id="g105">
</g>
<g
   id="g107">
</g>
<g
   id="g109">
</g>
<g
   id="g111">
</g>
<g
   id="g113">
</g>
<g
   id="g115">
</g>
<g
   id="g117">
</g>
<g
   id="g119">
</g>
<g
   id="g121">
</g>
<g
   id="g123">
</g>
<g
   id="g125">
</g>
<g
   id="g127">
</g>
</svg>
